<svg viewBox="0 0 21.8125 21" xmlns="http://www.w3.org/2000/svg" xmlns:xlink="http://www.w3.org/1999/xlink" width="21.812500" height="21.000000" fill="none">
	<rect id="Frame" width="21.812500" height="21.000000" x="0.000000" y="0.000000" transform="matrix(1,0,0,-1,0,21)" />
	<g id="Group">
		<path id="Vector" d="M2.63421 0L2.63421 10.4795L0 10.4795L0 14.0909L2.63421 14.0925L2.63053 16.2195C2.63053 19.1657 3.42959 20.9591 6.89971 20.9591L10.4795 20.9591L10.4795 17.3461L7.98287 17.3461C6.63117 17.3461 6.5669 16.8418 6.5669 15.9002L6.56158 14.0925L10.5135 14.0925L10.1312 10.4808L6.56403 10.4795L6.56158 0L2.63421 0Z" fill="rgb(255,255,255)" fill-rule="nonzero" transform="matrix(1,0,0,-1,0.0266113,20.959)" />
	</g>
</svg>
