<svg viewBox="0 0 138.998 142.078" xmlns="http://www.w3.org/2000/svg" xmlns:xlink="http://www.w3.org/1999/xlink" width="138.998047" height="142.078369" fill="none" customFrame="#000000">
	<rect id="Frame" width="138.921997" height="142.000000" x="0.076172" y="0.078369" />
	<path id="Vector" d="M111.597 13.9394C99.1828 5.12101 84.2327 0.588792 69.0116 1.02933C53.7904 1.46987 39.1273 6.85916 27.2439 16.3808C15.3604 25.9025 6.904 39.0377 3.15549 53.7966C-0.593013 68.5556 0.570706 84.1342 6.47039 98.1724C12.3701 112.211 22.6843 123.944 35.8505 131.594C49.0167 139.245 64.3176 142.396 79.4353 140.57C94.553 138.744 108.664 132.041 119.63 121.476L119.66 121.476L120.23 120.906C122.981 118.143 124.523 114.402 124.519 110.503C124.514 106.605 122.964 102.867 120.207 100.11C117.45 97.3534 113.712 95.8028 109.814 95.7984C105.915 95.7941 102.174 97.3364 99.4111 100.087L99.4111 100.077C93.7759 105.592 86.6549 109.345 78.9199 110.876C71.1848 112.407 63.1713 111.65 55.8599 108.698C48.5484 105.745 42.2563 100.725 37.7536 94.2518C33.2509 87.7787 30.7329 80.1334 30.5079 72.2515C30.2828 64.3696 32.3605 56.593 36.4865 49.8736C40.6125 43.1541 46.6079 37.7832 53.739 34.4183C60.8701 31.0533 68.8274 29.8402 76.6371 30.9275C84.4469 32.0147 91.7705 35.3551 97.7113 40.5399L99.6812 42.5198C100.602 43.4528 101.116 44.7121 101.112 46.0228C101.107 47.3335 100.585 48.5893 99.6578 49.5161C98.731 50.443 97.4752 50.9656 96.1645 50.97C94.8538 50.9743 93.5945 50.4601 92.6615 49.5395L89.9316 46.7996L89.8317 46.8996C89.7883 46.7777 89.7162 46.6679 89.6216 46.5796C84.9865 43.0695 79.451 40.946 73.6576 40.4553C67.8641 39.9647 62.0503 41.1271 56.8909 43.8077C51.7316 46.4882 47.4381 50.577 44.509 55.5995C41.5799 60.6219 40.1352 66.3721 40.3426 72.1826C40.55 77.9931 42.401 83.6256 45.6807 88.4265C48.9604 93.2273 53.5343 96.9996 58.8717 99.3056C64.2091 101.611 70.091 102.356 75.8347 101.454C81.5784 100.552 86.9485 98.0388 91.3216 94.2072C92.1449 93.2873 92.5967 92.0942 92.5893 90.8597C92.5819 89.6252 92.1158 88.4375 91.2815 87.5275C89.3116 85.3977 85.9418 85.9576 84.2719 87.3276C81.2272 89.8037 77.5474 91.3735 73.6529 91.8575C69.7584 92.3415 65.8063 91.7203 62.2481 90.0647C58.6899 88.4091 55.6692 85.786 53.5311 82.4951C51.393 79.2042 50.2238 75.3782 50.157 71.4543C50.0902 67.5304 51.1286 63.6668 53.1535 60.3051C55.1783 56.9433 58.108 54.2189 61.6077 52.4432C65.1075 50.6675 69.0362 49.9121 72.9449 50.2633C76.8537 50.6145 80.5848 52.0581 83.712 54.4292L83.7419 54.4092L85.5118 56.1791C88.2747 58.9297 92.0159 60.472 95.9145 60.4676C99.8131 60.4633 103.551 58.9126 106.308 56.1559C109.064 53.3991 110.615 49.6614 110.619 45.7628C110.624 41.8642 109.081 38.1231 106.331 35.3602L106.111 35.1402C106.077 34.9829 106.001 34.8377 105.891 34.7202C98.7278 27.8658 89.7013 23.2778 79.9422 21.5311C70.183 19.7844 60.1254 20.9568 51.0297 24.9013C41.9339 28.8458 34.2046 35.387 28.8102 43.7052C23.4159 52.0234 20.5965 61.7487 20.7053 71.6623C20.814 81.5759 23.8461 91.2369 29.4216 99.4348C34.9972 107.633 42.8682 114.003 52.0483 117.747C61.2284 121.491 71.3092 122.442 81.0277 120.482C90.7461 118.521 99.6699 113.737 106.681 106.727C106.695 106.692 106.712 106.659 106.731 106.627C107.633 105.782 108.819 105.307 110.055 105.293C111.291 105.279 112.487 105.728 113.409 106.552C114.33 107.375 114.91 108.514 115.034 109.744C115.159 110.973 114.818 112.205 114.08 113.196C104.949 122.523 93.032 128.627 80.1273 130.588C67.2226 132.548 54.0305 130.258 42.5414 124.063C31.0524 117.868 21.8898 108.105 16.4363 96.2457C10.9828 84.3868 9.53418 71.0759 12.3091 58.3216C15.084 45.5672 21.9318 34.0614 31.8193 25.5402C41.7068 17.0189 54.0976 11.9447 67.1219 11.0831C80.1461 10.2215 93.0973 13.6193 104.021 20.7638C114.945 27.9082 123.249 38.4117 127.68 50.6894C128.41 52.7193 130.12 55.6792 133.609 55.4592C134.284 55.4584 134.95 55.3013 135.554 55.0001C136.158 54.6989 136.685 54.2619 137.091 53.7233C137.498 53.1847 137.775 52.5591 137.899 51.8957C138.024 51.2322 137.993 50.549 137.809 49.8994C133.213 35.382 124.011 22.7578 111.597 13.9394Z" fill-rule="evenodd" stroke="rgb(255,255,255)" stroke-linecap="round" stroke-linejoin="round" stroke-width="1.99989927" />
</svg>
